<?xml version="1.0" encoding="UTF-8" standalone="no"?>
<svg
   xmlns:dc="http://purl.org/dc/elements/1.1/"
   xmlns:cc="http://creativecommons.org/ns#"
   xmlns:rdf="http://www.w3.org/1999/02/22-rdf-syntax-ns#"
   xmlns:svg="http://www.w3.org/2000/svg"
   xmlns="http://www.w3.org/2000/svg"
   xml:space="preserve"
   enable-background="new 0 0 376 235"
   viewBox="0 0 380 265"
   height="265"
   width="380"
   y="0px"
   x="0px"
   id="Layer_1"
   version="1.1"><title
   id="title4139">Splat 6</title><metadata
   id="metadata8"><rdf:RDF><cc:Work
       rdf:about=""><dc:format>image/svg+xml</dc:format><dc:type
         rdf:resource="http://purl.org/dc/dcmitype/StillImage" /><dc:title>Splat 6</dc:title><dc:creator><cc:Agent><dc:title>NicholasJudy456</dc:title></cc:Agent></dc:creator><dc:publisher><cc:Agent><dc:title>Openclipart.org</dc:title></cc:Agent></dc:publisher><dc:identifier>https://openclipart.org/</dc:identifier><dc:source>https://openclipart.org/user-detail/NicholasJudy456</dc:source><dc:subject><rdf:Bag><rdf:li>glop</rdf:li><rdf:li>goo</rdf:li><rdf:li>goop</rdf:li><rdf:li>grunge</rdf:li><rdf:li>gunge</rdf:li><rdf:li>gunk</rdf:li><rdf:li>Halloween</rdf:li><rdf:li>ink</rdf:li><rdf:li>paint</rdf:li><rdf:li>purple</rdf:li><rdf:li>slime</rdf:li><rdf:li>splat</rdf:li><rdf:li>spill</rdf:li></rdf:Bag></dc:subject><dc:description>red splat</dc:description><cc:license
         rdf:resource="http://creativecommons.org/publicdomain/zero/1.0/" /></cc:Work><cc:License
       rdf:about="http://creativecommons.org/publicdomain/zero/1.0/"><cc:permits
         rdf:resource="http://creativecommons.org/ns#Reproduction" /><cc:permits
         rdf:resource="http://creativecommons.org/ns#Distribution" /><cc:permits
         rdf:resource="http://creativecommons.org/ns#DerivativeWorks" /></cc:License></rdf:RDF></metadata><defs
   id="defs6" />  <path
   id="path4136"
   d="m 182.69251,247.06551 c -11.06934,-7.77662 9.51467,-25.55857 -2.16612,-34.02339 -20.63268,-13.07165 -8.32406,24.68018 -22.94135,25.83276 -22.29225,-1.91107 5.56217,-32.89415 -15.63553,-30.97253 -6.09142,9.50585 -11.17374,30.6977 -27.68359,21.15832 -12.2749,-8.87642 16.85262,-32.19065 -4.06996,-30.85638 -13.52264,3.81944 -22.993841,14.51819 -32.440649,24.22549 -6.338085,3.9894 -15.955597,11.97413 -23.382555,6.93021 -13.79458,-4.54113 -7.100579,-23.73434 3.300948,-28.25372 12.94313,-6.96966 27.459432,-13.21672 36.272209,-25.61013 0.0564,-13.79737 -21.845296,-1.02539 -26.275986,6.42574 -7.844724,9.55618 -23.647285,-7.71085 -7.868123,-11.01804 14.727831,-12.42246 -10.986549,-3.35654 -15.52939,2.18223 C 33.94802,182.13016 17.119402,176.05355 15,162.50525 c 2.734275,-15.77888 24.220677,-11.21338 35.757889,-15.40442 13.057267,0.40729 11.514548,-18.4687 -1.610683,-11.95121 -11.551433,1.26141 -28.797687,14.84318 -26.776544,-6.11168 2.827039,-13.3134 23.315202,-10.46608 33.803973,-15.89388 C 77.759943,108.01554 43.815162,102.29537 37.987971,97.329769 24.26813,84.866275 46.441798,66.18105 59.529648,74.333403 71.857476,77.60278 81.819992,85.695074 91.767144,93.314849 105.52364,86.55431 85.345355,76.608586 80.250146,71.115464 67.20919,58.395263 91.907286,36.430216 99.444614,54.82706 106.08307,63.222183 100.85248,89.323522 117.15961,81.898121 130.6251,72.303 112.57212,54.025418 108.34783,42.84438 107.43209,28.517286 127.68332,17.178617 137.4091,30.506456 c 10.50905,11.30291 -6.58876,28.362836 3.58369,40.666204 16.7491,3.200196 25.91601,-12.59629 22.00001,-27.609161 -4.55953,-15.179688 8.4575,-32.017765 24.33579,-27.946221 5.77819,2.677326 10.6941,12.612887 7.77281,18.919435 -2.59312,8.796593 -15.302,31.662553 1.4086,31.064038 15.73738,-2.311205 19.99052,-18.75875 28.97722,-29.239048 10.87437,-14.661535 28.81471,7.409792 15.5639,17.807369 -7.47576,10.102402 -26.43655,13.423503 -26.39388,27.796417 9.12666,7.954757 23.67349,-22.632479 23.64483,-1.640847 -10.04633,8.564809 -9.3655,12.815611 3.95327,10.997963 5.61215,0.878575 10.38344,-0.393488 13.75919,-5.234801 14.41556,-12.704504 27.70685,-31.041213 48.62327,-30.99404 8.02351,-0.09361 21.46231,6.765561 17.76374,15.539083 -5.81963,9.34528 -13.00348,17.04965 -24.65168,18.065616 -14.62306,3.824376 -28.52322,9.907283 -41.11135,18.367897 -3.44074,17.17219 22.21838,6.12573 28.81384,-0.55539 13.06208,-7.850397 28.36847,-10.265079 42.85599,-14.16604 4.87217,4.642013 8.84043,9.94247 2.10781,14.6782 -2.30032,6.00176 -8.39609,4.68895 -13.57932,5.1348 -5.02171,0.73051 -10.97429,-0.24186 -15.40854,1.5633 -11.76222,13.33078 15.4924,2.88588 22.78353,5.75926 12.76282,2.0259 33.15241,-1.76865 38.95688,12.90375 4.92701,6.24625 -0.88066,16.10771 -8.02443,16.81106 -6.57375,1.82328 -13.09509,4.7688 -19.92526,2.35363 -12.55699,-1.70618 -25.05689,-4.26601 -36.80231,-9.1743 -16.52907,7.28723 7.60633,11.05832 15.0694,15.01554 8.91017,-1.14368 14.01764,15.21111 6.31037,17.64878 -13.52795,4.71265 -27.30632,-1.47602 -40.42898,-4.8963 -7.78478,2.54021 -11.20229,6.03044 -1.02583,9.72475 11.20888,2.40582 20.63686,15.51942 4.82121,19.33286 -7.30501,4.372 -14.64913,-5.76626 -22.52131,-1.93697 8.19513,10.48117 28.52334,6.40827 37.30134,18.76201 0.72534,7.98624 -8.03336,17.72741 -16.12074,15.62524 -14.12576,-0.77622 -25.79919,-9.46222 -35.05236,-19.6762 -3.60059,-4.38816 -7.34525,-7.98065 -12.54534,-3.53494 -7.37216,4.58883 4.13118,18.64521 9.44071,22.77138 11.55779,14.25747 -13.48381,17.47891 -21.90244,12.49326 -3.02843,-7.84298 -5.39322,-16.01103 -9.37386,-23.42672 -16.01736,-10.86902 -16.74835,11.46774 -16.74319,22.11114 2.66813,11.11525 -6.02733,7.59881 -12.95317,4.67705 z"
   style="fill:#ec1b23" />
</svg>