<?xml version="1.0" encoding="UTF-8" standalone="no"?>
<!-- Created with Inkscape (http://www.inkscape.org/) -->
<svg xmlns:dc="http://purl.org/dc/elements/1.1/" xmlns:cc="http://creativecommons.org/ns#" xmlns:rdf="http://www.w3.org/1999/02/22-rdf-syntax-ns#" xmlns:svg="http://www.w3.org/2000/svg" xmlns="http://www.w3.org/2000/svg" xmlns:sodipodi="http://sodipodi.sourceforge.net/DTD/sodipodi-0.dtd" xmlns:inkscape="http://www.inkscape.org/namespaces/inkscape" viewBox="0 0 270.73013 245.47652" id="svg14373" version="1.1" inkscape:version="0.91pre4 r13712" sodipodi:docname="tomato.svg">
  <defs id="defs14375"/>
  <sodipodi:namedview id="base" pagecolor="#ffffff" bordercolor="#666666" borderopacity="1.0" inkscape:pageopacity="0.0" inkscape:pageshadow="2" inkscape:zoom="0.5" inkscape:cx="223.22221" inkscape:cy="63.452578" inkscape:document-units="px" inkscape:current-layer="layer1" showgrid="false" fit-margin-top="5" fit-margin-left="5" fit-margin-right="5" fit-margin-bottom="5" inkscape:window-width="1364" inkscape:window-height="747" inkscape:window-x="0" inkscape:window-y="19" inkscape:window-maximized="1"/>
  <metadata id="metadata14378">
    <rdf:RDF>
      <cc:Work rdf:about="">
        <dc:format>image/svg+xml</dc:format>
        <dc:type rdf:resource="http://purl.org/dc/dcmitype/StillImage"/>
        <dc:title/>
      </cc:Work>
    </rdf:RDF>
  </metadata>
  <g inkscape:label="Layer 1" inkscape:groupmode="layer" id="layer1" transform="translate(-151.77779,-349.62397)">
    <path inkscape:connector-curvature="0" style="display:inline;fill:#bf5b4a;fill-opacity:1;fill-rule:evenodd;stroke:#000000;stroke-width:4.41212749;stroke-linecap:butt;stroke-linejoin:miter;stroke-miterlimit:4;stroke-dasharray:none;stroke-opacity:1" id="path12979" sodipodi:nodetypes="csssssc" d="m 265.40354,410.20983 c 0,0 -41.9811,10.91505 -53.73577,43.66019 -11.75468,32.74525 -6.71691,83.12251 36.1037,106.6318 42.82067,23.50945 85.74981,16.10286 112.50908,-3.3584 27.7076,-20.15089 28.54722,-43.6603 31.06611,-74.72629 2.51888,-31.06583 -38.59286,-79.57662 -69.68858,-74.72613 -30.81324,4.80631 -56.25454,1.67926 -56.25454,2.51883 z" inkscape:export-filename="/home/steve/work/graphics/solar_powered/use11577.png" inkscape:export-xdpi="63.497189" inkscape:export-ydpi="63.497189"/>
    <path inkscape:connector-curvature="0" style="color:#000000;display:inline;overflow:visible;visibility:visible;opacity:1;fill:#46a340;fill-opacity:1;fill-rule:evenodd;stroke:#000000;stroke-width:4.42753124;stroke-linecap:butt;stroke-linejoin:miter;stroke-miterlimit:4;stroke-dasharray:none;stroke-dashoffset:0;stroke-opacity:1;marker:none;marker-start:none;marker-mid:none;marker-end:none;enable-background:accumulate" id="path12981" sodipodi:nodetypes="csssssssssszzsssssssssssssssssssssssssssszssssscc" d="m 285.33265,370.34215 c 0,0 -3.72458,26.4149 -3.82762,29.4875 -0.0272,0.85028 -16.04959,-4.40334 -20.23208,-7.21167 -4.18221,-2.80832 -13.10683,-7.42361 -19.41294,-9.49572 -6.658,-2.18743 -28.87873,0.83582 -27.60912,4.21672 1.26944,3.38085 2.68376,-1.73756 12.22361,0.62274 9.53974,2.3603 31.84617,20.0453 35.10256,21.22045 3.25624,1.17521 -8.01499,3.06657 -12.09286,3.8681 -4.07781,0.80153 -12.3785,-0.6961 -18.78662,0.5635 -6.40823,1.2595 -33.47157,4.80055 -40.79578,1.3996 -7.32405,-3.40084 -10.99803,-7.41551 -11.5705,-10.32829 -0.57247,-2.91266 -2.15787,-8.46376 -5.07069,-7.89119 -2.91278,0.57247 -1.16858,10.11797 0.80419,14.00743 1.94006,3.82457 17.63891,11.60055 23.15589,11.37176 5.51708,-0.22879 29.22566,0.67317 33.05447,0.56247 3.82886,-0.11086 39.77736,-3.32612 42.212,-5.08814 2.43476,-1.76213 2.31335,-2.37998 4.52763,0.17988 2.21456,2.55964 5.53986,5.32878 9.07461,6.98717 3.53475,1.65838 5.70968,2.69968 9.86358,4.88478 9.68908,5.097 12.96629,-0.40161 13.92091,-2.0945 0.88708,-1.57274 2.08239,-7.23275 -1.70582,-6.91598 -3.78844,0.31683 -7.33025,0.79892 -8.35291,-1.13923 -1.02277,-1.93821 -1.3396,-5.72653 0.97016,-7.03613 2.30966,-1.30971 11.33155,-3.29688 17.13188,-2.08391 5.80044,1.21309 15.51408,1.65692 19.62983,1.91756 4.11575,0.26086 14.81885,0.29618 20.33583,0.0679 5.51698,-0.22879 12.73592,-2.16238 15.89624,-1.84098 5.02043,0.51084 17.38202,-2.98864 20.93074,-5.61154 2.41715,-1.7862 5.4135,-6.19802 6.24438,-8.50061 0.83093,-2.30254 2.80963,-3.11934 0.67252,-4.19667 -2.137,-1.0775 0.20977,-1.11087 -5.69316,3.6861 -5.90256,4.79679 -9.36345,5.69093 -12.37193,6.71011 -3.00863,1.01924 -12.31382,1.5647 -16.26404,1.05761 -3.95027,-0.50704 -22.21936,-3.11994 -25.59929,-1.81382 -3.37997,1.30613 -21.23719,-1.38774 -23.87068,-1.72588 -2.63339,-0.33802 0.26085,-4.11564 2.2464,-7.07303 1.98581,-2.95739 5.86222,-5.00277 8.6243,-6.18743 2.76207,-1.18466 6.88125,-1.9944 9.47436,-1.86229 2.59301,0.13206 5.55394,1.04761 7.69105,2.12494 2.137,1.0775 4.76343,3.55611 7.34584,6.89907 2.58246,3.34308 3.65686,4.32259 4.14107,2.6047 1.10826,-3.9331 0.42824,-2.20385 0.10597,-5.5685 -0.32172,-3.36476 -5.05053,-7.865 -9.86151,-9.48637 -4.81115,-1.62149 -7.63224,-2.70159 -12.20389,-2.01696 -4.57176,0.68464 -16.75646,2.98815 -20.75722,5.48693 -4.00005,2.49828 -9.27313,6.58968 -16.12698,9.37355 -1.74518,0.70882 -3.5335,-7.00836 -1.73447,-14.97525 1.15064,-5.09521 1.88158,-7.21102 1.88158,-7.21102 -2.94696,-3.63556 -8.07157,-2.91587 -13.32176,-1.94473 z" inkscape:export-filename="/home/steve/work/graphics/solar_powered/use11577.png" inkscape:export-xdpi="63.497189" inkscape:export-ydpi="63.497189"/>
  </g>
</svg>
